<svg version="1.1" xmlns="http://www.w3.org/2000/svg" width="340" height="340"> <g transform="translate(92,257)"> <g> <line x1="0" y1="-55" x2="0" y2="12" stroke="#000000" stroke-width="1.5" stroke-linecap="round" vector-effect="non-scaling-stroke"/> <circle cx="0" cy="0" r="10" style="fill:none;stroke:#000000;stroke-width:1.5" vector-effect="non-scaling-stroke" transform="translate(0,-45) scale(1)" /> <line x1="-10" y1="0" x2="10" y2="0" stroke="#000000" stroke-width="1.5" stroke-linecap="round" vector-effect="non-scaling-stroke" transform="translate(0,10) scale(2)" /> <g transform="translate(0,33) scale(2.1)"> <g> <circle cx="0" cy="0" r="10" style="fill:none;stroke:#000000;stroke-width:1.5" vector-effect="non-scaling-stroke" /> <circle cx="0" cy="0" r="7.5" style="fill:none;stroke:#000000;stroke-width:1.5" vector-effect="non-scaling-stroke" /> <line x1="0" y1="-7.5" x2="0" y2="7.5" stroke="#000000" stroke-width="1.5" stroke-linecap="round" vector-effect="non-scaling-stroke"/> <line x1="0" y1="-7.5" x2="0" y2="7.5" stroke="#000000" stroke-width="1.5" stroke-linecap="round" vector-effect="non-scaling-stroke" transform="rotate(11.25)"/> <line x1="0" y1="-7.5" x2="0" y2="7.5" stroke="#000000" stroke-width="1.5" stroke-linecap="round" vector-effect="non-scaling-stroke" transform="rotate(22.5)"/> <line x1="0" y1="-7.5" x2="0" y2="7.5" stroke="#000000" stroke-width="1.5" stroke-linecap="round" vector-effect="non-scaling-stroke" transform="rotate(33.75)"/> <line x1="0" y1="-7.5" x2="0" y2="7.5" stroke="#000000" stroke-width="1.5" stroke-linecap="round" vector-effect="non-scaling-stroke" transform="rotate(45)"/> <animateTransform attributeName="transform" attributeType="XML" type="rotate" from="0" to="360" dur="1.5s" repeatCount="indefinite" /> </g> </g> <animateTransform attributeName="transform" attributeType="XML" type="rotate" from="0" to="-360" dur="4s" repeatCount="indefinite" /> </g> </g> <g transform="translate(200, 125)"> <g> <line x1="0" y1="-35" x2="0" y2="55" stroke="#000000" stroke-width="1.5" stroke-linecap="round" vector-effect="non-scaling-stroke"/> <polygon points="0,10 10,0 0,-10 -10,0" style="fill:none;stroke:#000000;stroke-width:1.5" stroke-linejoin="round" vector-effect="non-scaling-stroke" transform="translate(0,-75) scale(4)" /> <line x1="-10" y1="0" x2="10" y2="0" stroke="#000000" stroke-width="1.5" stroke-linecap="round" vector-effect="non-scaling-stroke" transform="translate(0,-30) scale(2)" /> <g transform="translate(0,85) scale(3)"> <g> <circle cx="0" cy="0" r="10" style="fill:none;stroke:#000000;stroke-width:1.5" vector-effect="non-scaling-stroke" /> <circle cx="0" cy="0" r="7.5" style="fill:none;stroke:#000000;stroke-width:1.5" vector-effect="non-scaling-stroke" /> <line x1="0" y1="-7.5" x2="0" y2="7.5" stroke="#000000" stroke-width="1.5" stroke-linecap="round" vector-effect="non-scaling-stroke"/> <line x1="0" y1="-7.5" x2="0" y2="7.5" stroke="#000000" stroke-width="1.5" stroke-linecap="round" vector-effect="non-scaling-stroke" transform="rotate(11.25)"/> <line x1="0" y1="-7.5" x2="0" y2="7.5" stroke="#000000" stroke-width="1.5" stroke-linecap="round" vector-effect="non-scaling-stroke" transform="rotate(22.5)"/> <line x1="0" y1="-7.5" x2="0" y2="7.5" stroke="#000000" stroke-width="1.5" stroke-linecap="round" vector-effect="non-scaling-stroke" transform="rotate(33.75)"/> <line x1="0" y1="-7.5" x2="0" y2="7.5" stroke="#000000" stroke-width="1.5" stroke-linecap="round" vector-effect="non-scaling-stroke" transform="rotate(45)"/> <animateTransform attributeName="transform" attributeType="XML" type="rotate" from="0" to="360" dur="3s" repeatCount="indefinite" /> </g> </g> <animateTransform attributeName="transform" attributeType="XML" type="rotate" from="0" to="-360" dur="13s" repeatCount="indefinite" /> </g> </g> <mask id="maskA"> <rect x="0" y="0" width="340" height="340" fill="black" /> <polygon points="150,55 290,55 290,312 150,312" style="fill:white;stroke:none;"/> <circle cx="0" cy="0" r="10" style="fill:white;stroke:none" transform="translate(200,125) scale(11.5)" /> </mask> <g style="mask: url(#maskA)"> <g> <g transform="rotate(270)"> <line x1="0" y1="0" x2="0" y2="30" stroke="#000000" stroke-width="1.5" stroke-linecap="round" vector-effect="non-scaling-stroke"/> <line x1="-10" y1="0" x2="10" y2="0" stroke="#000000" stroke-width="1.5" stroke-linecap="round" vector-effect="non-scaling-stroke" transform="translate(0,15) scale(2)" /> <g transform="translate(0,69) scale(3.8)"> <g> <circle cx="0" cy="0" r="10" style="fill:none;stroke:#000000;stroke-width:1.5" vector-effect="non-scaling-stroke" /> <circle cx="0" cy="0" r="7.5" style="fill:none;stroke:#000000;stroke-width:1.5" vector-effect="non-scaling-stroke" /> <line x1="0" y1="-7.5" x2="0" y2="7.5" stroke="#000000" stroke-width="1.5" stroke-linecap="round" vector-effect="non-scaling-stroke"/> <line x1="0" y1="-7.5" x2="0" y2="7.5" stroke="#000000" stroke-width="1.5" stroke-linecap="round" vector-effect="non-scaling-stroke" transform="rotate(11.25)"/> <line x1="0" y1="-7.5" x2="0" y2="7.5" stroke="#000000" stroke-width="1.5" stroke-linecap="round" vector-effect="non-scaling-stroke" transform="rotate(22.5)"/> <line x1="0" y1="-7.5" x2="0" y2="7.5" stroke="#000000" stroke-width="1.5" stroke-linecap="round" vector-effect="non-scaling-stroke" transform="rotate(33.75)"/> <line x1="0" y1="-7.5" x2="0" y2="7.5" stroke="#000000" stroke-width="1.5" stroke-linecap="round" vector-effect="non-scaling-stroke" transform="rotate(45)"/> <animateTransform attributeName="transform" attributeType="XML" type="rotate" from="0" to="360" dur="2s" repeatCount="indefinite" /> </g> </g> </g> <g transform="translate(0,302)"> <g transform="rotate(270)"> <line x1="0" y1="0" x2="0" y2="30" stroke="#000000" stroke-width="1.5" stroke-linecap="round" vector-effect="non-scaling-stroke"/> <line x1="-10" y1="0" x2="10" y2="0" stroke="#000000" stroke-width="1.5" stroke-linecap="round" vector-effect="non-scaling-stroke" transform="translate(0,15) scale(2)" /> <g transform="translate(0,69) scale(3.8)"> <g> <circle cx="0" cy="0" r="10" style="fill:none;stroke:#000000;stroke-width:1.5" vector-effect="non-scaling-stroke" /> <circle cx="0" cy="0" r="7.5" style="fill:none;stroke:#000000;stroke-width:1.5" vector-effect="non-scaling-stroke" /> <line x1="0" y1="-7.5" x2="0" y2="7.5" stroke="#000000" stroke-width="1.5" stroke-linecap="round" vector-effect="non-scaling-stroke"/> <line x1="0" y1="-7.5" x2="0" y2="7.5" stroke="#000000" stroke-width="1.5" stroke-linecap="round" vector-effect="non-scaling-stroke" transform="rotate(11.25)"/> <line x1="0" y1="-7.5" x2="0" y2="7.5" stroke="#000000" stroke-width="1.5" stroke-linecap="round" vector-effect="non-scaling-stroke" transform="rotate(22.5)"/> <line x1="0" y1="-7.5" x2="0" y2="7.5" stroke="#000000" stroke-width="1.5" stroke-linecap="round" vector-effect="non-scaling-stroke" transform="rotate(33.75)"/> <line x1="0" y1="-7.5" x2="0" y2="7.5" stroke="#000000" stroke-width="1.5" stroke-linecap="round" vector-effect="non-scaling-stroke" transform="rotate(45)"/> <animateTransform attributeName="transform" attributeType="XML" type="rotate" from="0" to="360" dur="2s" repeatCount="indefinite" /> </g> </g> </g> </g> <animateMotion path="M 170 212 L 170 -90" dur="6s" repeatCount="indefinite"/> </g> </g> <g transform="translate(200,125)"> <g> <line x1="0" y1="0" x2="0" y2="50" stroke="#000000" stroke-width="1.5" stroke-linecap="round" vector-effect="non-scaling-stroke"/> <g transform="translate(0,28) scale(1.2)"> <g> <circle cx="0" cy="0" r="10" style="fill:none;stroke:#000000;stroke-width:1.5" vector-effect="non-scaling-stroke" /> <circle cx="0" cy="0" r="5" style="fill:none;stroke:#000000;stroke-width:1.5" vector-effect="non-scaling-stroke" /> <line x1="0" y1="-10" x2="0" y2="10" stroke="#000000" stroke-width="1.5" stroke-linecap="round" vector-effect="non-scaling-stroke" transform="rotate(0)"/> <line x1="0" y1="-10" x2="0" y2="10" stroke="#000000" stroke-width="1.5" stroke-linecap="round" vector-effect="non-scaling-stroke" transform="rotate(45)"/> <line x1="0" y1="-10" x2="0" y2="10" stroke="#000000" stroke-width="1.5" stroke-linecap="round" vector-effect="non-scaling-stroke" transform="rotate(135)"/> </g> </g> <line x1="-10" y1="0" x2="10" y2="0" stroke="#000000" stroke-width="1.5" stroke-linecap="round" vector-effect="non-scaling-stroke" transform="translate(0,44) scale(0.9)" /> <animateTransform attributeName="transform" attributeType="XML" type="rotate" from="0" to="-360" dur="3s" repeatCount="indefinite" /> </g> </g> <mask id="maskB"> <rect x="0" y="0" width="340" height="340" fill="black" /> <polygon points="92,100 92,312 315,312 315,100" style="fill:white;stroke:none;"/> <circle cx="0" cy="0" r="10" style="fill:black;stroke:none" transform="translate(92,257) scale(5.5)" /> </mask> <g style="mask: url(#maskB)"> <g> <g transform="rotate(270)"> <line x1="0" y1="42" x2="0" y2="120" stroke="#000000" stroke-width="1.5" stroke-linecap="round" vector-effect="non-scaling-stroke"/> <path d="M -10 -18 L -3 -18 M -10 -14 L -3 -14 M -10 -10 L -3 -10 M -10 -6 L -3 -6 M -10 -2 L -3 -2 M -10 2 L -3 2 M -10 6 L -3 6 M -10 10 L -3 10 M -10 14 L -3 14 M -10 18 L -3 18" style="fill:none;stroke:#000000;stroke-width:1.5" vector-effect="non-scaling-stroke" stroke-linejoin="flat" transform="translate(-2,62) scale(1.3, 1)" /> <line x1="-10" y1="0" x2="10" y2="0" stroke="#000000" stroke-width="1.5" stroke-linecap="round" vector-effect="non-scaling-stroke" transform="translate(0,85) scale(2.3)" /> </g> <g transform="translate(-175,0)"> <g transform="rotate(270)"> <line x1="0" y1="42" x2="0" y2="120" stroke="#000000" stroke-width="1.5" stroke-linecap="round" vector-effect="non-scaling-stroke"/> <path d="M -10 -18 L -3 -18 M -10 -14 L -3 -14 M -10 -10 L -3 -10 M -10 -6 L -3 -6 M -10 -2 L -3 -2 M -10 2 L -3 2 M -10 6 L -3 6 M -10 10 L -3 10 M -10 14 L -3 14 M -10 18 L -3 18" style="fill:none;stroke:#000000;stroke-width:1.5" vector-effect="non-scaling-stroke" stroke-linejoin="flat" transform="translate(-2,62) scale(1.3, 1)" /> <line x1="-10" y1="0" x2="10" y2="0" stroke="#000000" stroke-width="1.5" stroke-linecap="round" vector-effect="non-scaling-stroke" transform="translate(0,85) scale(2.3)" /> </g> </g> <animateMotion path="M 360 265 L 185 265" dur="9s" repeatCount="indefinite"/> </g> </g> </svg>