<svg version="1.1" xmlns="http://www.w3.org/2000/svg" width="340" height="340"> <mask id="maskA"> <rect x="0" y="0" width="340" height="340" fill="black" /> <polygon points="30,240 30,320 330,320 330,240" style="fill:white;stroke:none;"/> </mask> <g style="mask: url(#maskA)"> <g> <g> <line x1="0" y1="0" x2="0" y2="60" stroke="black" stroke-width="1.5" stroke-linecap="round" vector-effect="non-scaling-stroke"/> <path d="M -10 -18 L -3 -18 M -10 -14 L -3 -14 M -10 -10 L -3 -10 M -10 -6 L -3 -6 M -10 -2 L -3 -2 M -10 2 L -3 2 M -10 6 L -3 6 M -10 10 L -3 10 M -10 14 L -3 14 M -10 18 L -3 18" style="fill:none;stroke:black;stroke-width:1.5" vector-effect="non-scaling-stroke" stroke-linejoin="flat" transform="translate(1,16) scale(-1, 0.8)" /> <line x1="-10" y1="0" x2="10" y2="0" stroke="black" stroke-width="1.5" stroke-linecap="round" vector-effect="non-scaling-stroke" transform="translate(0,34) scale(1.3)" /> <polygon points="0,0 -5.78,0 0,-10" style="fill:none;stroke:black;stroke-width:1.5" vector-effect="non-scaling-stroke" stroke-linejoin="round" transform="translate(0,60) scale(2.5)" /> </g> <g transform="translate(300,0)"> <g> <line x1="0" y1="0" x2="0" y2="60" stroke="black" stroke-width="1.5" stroke-linecap="round" vector-effect="non-scaling-stroke"/> <path d="M -10 -18 L -3 -18 M -10 -14 L -3 -14 M -10 -10 L -3 -10 M -10 -6 L -3 -6 M -10 -2 L -3 -2 M -10 2 L -3 2 M -10 6 L -3 6 M -10 10 L -3 10 M -10 14 L -3 14 M -10 18 L -3 18" style="fill:none;stroke:black;stroke-width:1.5" vector-effect="non-scaling-stroke" stroke-linejoin="flat" transform="translate(1,16) scale(-1, 0.8)" /> <line x1="-10" y1="0" x2="10" y2="0" stroke="black" stroke-width="1.5" stroke-linecap="round" vector-effect="non-scaling-stroke" transform="translate(0,34) scale(1.3)" /> <polygon points="0,0 -5.78,0 0,-10" style="fill:none;stroke:black;stroke-width:1.5" vector-effect="non-scaling-stroke" stroke-linejoin="round" transform="translate(0,60) scale(2.5)" /> </g> </g> <animateMotion path="M 270 250 L -30 250" dur="4s" repeatCount="indefinite"/> </g> </g> <g transform="translate(175,165)"> <g> <line x1="0" y1="-32" x2="0" y2="-25" stroke="black" stroke-width="1.5" stroke-linecap="round" vector-effect="non-scaling-stroke"/> <line x1="0" y1="25" x2="0" y2="60" stroke="black" stroke-width="1.5" stroke-linecap="round" vector-effect="non-scaling-stroke"/> <polygon points="10,0 0,10 -10,0" style="fill:none;stroke:black;stroke-width:1.5" stroke-linejoin="round" vector-effect="non-scaling-stroke" transform="translate(0,-62) scale(3)" /> <line x1="-10" y1="0" x2="10" y2="0" stroke="black" stroke-width="1.5" stroke-linecap="round" vector-effect="non-scaling-stroke" transform="translate(0,-30) scale(2)" /> <g transform="translate(0,0) scale(2.5)"> <g> <circle cx="0" cy="0" r="10" style="fill:none;stroke:black;stroke-width:1.5" vector-effect="non-scaling-stroke" /> <circle cx="0" cy="0" r="7.5" style="fill:none;stroke:black;stroke-width:1.5" vector-effect="non-scaling-stroke" /> <line x1="0" y1="-7.5" x2="0" y2="7.5" stroke="black" stroke-width="1.5" stroke-linecap="round" vector-effect="non-scaling-stroke"/> <line x1="0" y1="-7.5" x2="0" y2="7.5" stroke="black" stroke-width="1.5" stroke-linecap="round" vector-effect="non-scaling-stroke" transform="rotate(11.25)"/> <line x1="0" y1="-7.5" x2="0" y2="7.5" stroke="black" stroke-width="1.5" stroke-linecap="round" vector-effect="non-scaling-stroke" transform="rotate(22.5)"/> <line x1="0" y1="-7.5" x2="0" y2="7.5" stroke="black" stroke-width="1.5" stroke-linecap="round" vector-effect="non-scaling-stroke" transform="rotate(33.75)"/> <line x1="0" y1="-7.5" x2="0" y2="7.5" stroke="black" stroke-width="1.5" stroke-linecap="round" vector-effect="non-scaling-stroke" transform="rotate(45)"/> <animateTransform attributeName="transform" attributeType="XML" type="rotate" from="0" to="360" dur="2s" repeatCount="indefinite" /> </g> </g> <polygon points="0,0 -5.78,0 0,-10" style="fill:none;stroke:black;stroke-width:1.5" vector-effect="non-scaling-stroke" stroke-linejoin="round" transform="translate(0,65) scale(4)" /> <animateTransform attributeName="transform" attributeType="XML" type="rotate" from="0" to="-360" dur="9s" repeatCount="indefinite" /> </g> </g> <mask id="maskB"> <rect x="0" y="0" width="340" height="340" fill="black" /> <polygon points="0,40 60,40 60,320 0,320" style="fill:white;stroke:none;"/> </mask> <g style="mask: url(#maskB)"> <g> <g> <line x1="0" y1="0" x2="0" y2="80" stroke="black" stroke-width="1.5" stroke-linecap="round" vector-effect="non-scaling-stroke"/> <polygon points="0,0 -5.78,0 0,-10" style="fill:none;stroke:black;stroke-width:1.5" vector-effect="non-scaling-stroke" stroke-linejoin="round" transform="translate(0,20) scale(3.5)" /> <path d="M -10 -18 L -3 -18 M -10 -14 L -3 -14 M -10 -10 L -3 -10 M -10 -6 L -3 -6 M -10 -2 L -3 -2 M -10 2 L -3 2 M -10 6 L -3 6 M -10 10 L -3 10 M -10 14 L -3 14 M -10 18 L -3 18" style="fill:none;stroke:black;stroke-width:1.5" vector-effect="non-scaling-stroke" stroke-linejoin="flat" transform="translate(0,40) scale(-1.2, 1)" /> <line x1="-10" y1="0" x2="10" y2="0" stroke="black" stroke-width="1.5" stroke-linecap="round" vector-effect="non-scaling-stroke" transform="translate(0,63) scale(1.8)" /> <polygon points="0,0 -5.78,0 0,-10" style="fill:none;stroke:black;stroke-width:1.5" vector-effect="non-scaling-stroke" stroke-linejoin="round" transform="translate(0,80) scale(1.6)" /> </g> <g transform="translate(0,280)"> <g> <line x1="0" y1="0" x2="0" y2="80" stroke="black" stroke-width="1.5" stroke-linecap="round" vector-effect="non-scaling-stroke"/> <polygon points="0,0 -5.78,0 0,-10" style="fill:none;stroke:black;stroke-width:1.5" vector-effect="non-scaling-stroke" stroke-linejoin="round" transform="translate(0,20) scale(3.5)" /> <path d="M -10 -18 L -3 -18 M -10 -14 L -3 -14 M -10 -10 L -3 -10 M -10 -6 L -3 -6 M -10 -2 L -3 -2 M -10 2 L -3 2 M -10 6 L -3 6 M -10 10 L -3 10 M -10 14 L -3 14 M -10 18 L -3 18" style="fill:none;stroke:black;stroke-width:1.5" vector-effect="non-scaling-stroke" stroke-linejoin="flat" transform="translate(0,40) scale(-1.2, 1)" /> <line x1="-10" y1="0" x2="10" y2="0" stroke="black" stroke-width="1.5" stroke-linecap="round" vector-effect="non-scaling-stroke" transform="translate(0,63) scale(1.8)" /> <polygon points="0,0 -5.78,0 0,-10" style="fill:none;stroke:black;stroke-width:1.5" vector-effect="non-scaling-stroke" stroke-linejoin="round" transform="translate(0,80) scale(1.6)" /> </g> </g> <animateMotion path="M 30 240 L 30 -40" dur="6s" repeatCount="indefinite"/> </g> </g> </svg>