<svg version="1.1" xmlns="http://www.w3.org/2000/svg" width="340" height="340"> <g transform="translate(170,170)"> <g> <line x1="0" y1="0" x2="0" y2="55" stroke="black" stroke-width="1.5" stroke-linecap="round" vector-effect="non-scaling-stroke"/> <g transform="translate(0,30) scale(1.2)"> <circle cx="0" cy="0" r="10" style="fill:none;stroke:black;stroke-width:1.5" vector-effect="non-scaling-stroke" /> <circle cx="0" cy="0" r="6" style="fill:none;stroke:black;stroke-width:1.5" vector-effect="non-scaling-stroke" /> </g> <line x1="-10" y1="0" x2="10" y2="0" stroke="black" stroke-width="1.5" stroke-linecap="round" vector-effect="non-scaling-stroke" transform="translate(0,43) scale(1)" /> <circle cx="0" cy="0" r="10" style="fill:none;stroke:black;stroke-width:1.5" vector-effect="non-scaling-stroke" transform="translate(0,49) scale(0.6)" /> <animateTransform attributeName="transform" attributeType="XML" type="rotate" from="0" to="-360" dur="6s" repeatCount="indefinite" /> </g> </g> <g transform="translate(170,170)"> <g> <line x1="0" y1="0" x2="0" y2="35" stroke="black" stroke-width="1.5" stroke-linecap="round" vector-effect="non-scaling-stroke"/> <line x1="0" y1="55" x2="0" y2="115" stroke="black" stroke-width="1.5" stroke-linecap="round" vector-effect="non-scaling-stroke"/> <g transform="translate(0,45) scale(1)"> <g> <circle cx="0" cy="0" r="10" style="fill:none;stroke:black;stroke-width:1.5" vector-effect="non-scaling-stroke" /> <line x1="0" y1="-10" x2="0" y2="10" stroke="black" stroke-width="1.5" stroke-linecap="round" vector-effect="non-scaling-stroke"/> <animateTransform attributeName="transform" attributeType="XML" type="rotate" from="0" to="360" dur="2s" repeatCount="indefinite" /> </g> </g> <path d="M -10 -18 L -3 -18 M -10 -14 L -3 -14 M -10 -10 L -3 -10 M -10 -6 L -3 -6 M -10 -2 L -3 -2 M -10 2 L -3 2 M -10 6 L -3 6 M -10 10 L -3 10 M -10 14 L -3 14 M -10 18 L -3 18" style="fill:none;stroke:black;stroke-width:1.5" vector-effect="non-scaling-stroke" stroke-linejoin="flat" transform="translate(-2,82) scale(1.1)" /> <line x1="-10" y1="0" x2="10" y2="0" stroke="black" stroke-width="1.5" stroke-linecap="round" vector-effect="non-scaling-stroke" transform="translate(0,108) scale(1.2)" /> <animateTransform attributeName="transform" attributeType="XML" type="rotate" from="20" to="-340" dur="4s" repeatCount="indefinite" /> </g> </g> </svg>