<svg version="1.1" xmlns="http://www.w3.org/2000/svg" width="340" height="340"> <g transform="translate(135,135) scale(8)"> <g> <g transform="translate(0,-10) rotate(-45) scale(0.25)"> <line x1="0" y1="5" x2="0" y2="35" stroke="black" stroke-width="1.5" stroke-linecap="round" vector-effect="non-scaling-stroke"/> <line x1="-10" y1="0" x2="10" y2="0" stroke="black" stroke-width="1.5" stroke-linecap="round" vector-effect="non-scaling-stroke" transform="translate(0,10) scale(0.5)" /> <circle cx="0" cy="0" r="15" style="fill:none;stroke:black;stroke-width:1.5" vector-effect="non-scaling-stroke" transform="translate(0,22) scale(0.5)" /> <g transform="translate(0,40) scale(0.45)"> <g> <circle cx="0" cy="0" r="10" style="fill:none;stroke:black;stroke-width:1.5" vector-effect="non-scaling-stroke" /> <line x1="0" y1="-10" x2="0" y2="10" stroke="black" stroke-width="1.5" stroke-linecap="round" vector-effect="non-scaling-stroke"/> <animateTransform attributeName="transform" attributeType="XML" type="rotate" from="0" to="-360" dur="2s" repeatCount="indefinite" /> </g> </g> </g> <animateTransform attributeName="transform" attributeType="XML" type="rotate" from="0" to="-360" dur="6s" repeatCount="indefinite" /> </g> </g> <mask id="maskA"> <rect x="0" y="0" width="340" height="340" fill="black" /> <polygon points="15,15 15,320 320,320 330,15" style="fill:white;stroke:none;"/> <g transform="translate(320,320) scale(10) rotate(270)"> <g> <circle cx="0" cy="0" r="10" style="fill:black;stroke:none;" vector-effect="non-scaling-stroke" /> </g> </g> </mask> <g style="mask: url(#maskA)"> <g> <g transform="rotate(315)"> <line x1="0" y1="-40" x2="0" y2="90" stroke="black" stroke-width="1.5" stroke-linecap="round" vector-effect="non-scaling-stroke"/> <circle cx="0" cy="0" r="10" style="fill:none;stroke:black;stroke-width:1.5" vector-effect="non-scaling-stroke" transform="translate(0,0) scale(4)" /> <line x1="-10" y1="0" x2="10" y2="0" stroke="black" stroke-width="1.5" stroke-linecap="round" vector-effect="non-scaling-stroke" transform="translate(0,65) scale(4)" /> </g> <g transform="translate(-235,-235)"> <g transform="rotate(315)"> <line x1="0" y1="-40" x2="0" y2="90" stroke="black" stroke-width="1.5" stroke-linecap="round" vector-effect="non-scaling-stroke"/> <circle cx="0" cy="0" r="10" style="fill:none;stroke:black;stroke-width:1.5" vector-effect="non-scaling-stroke" transform="translate(0,0) scale(4)" /> <line x1="-10" y1="0" x2="10" y2="0" stroke="black" stroke-width="1.5" stroke-linecap="round" vector-effect="non-scaling-stroke" transform="translate(0,65) scale(4)" /> </g> </g> <animateMotion path="M 110 110 L 345 345" dur="4s" repeatCount="indefinite"/> </g> </g> <mask id="maskB"> <rect x="0" y="0" width="340" height="340" fill="black" /> <polygon points="170,15 270,15 270,320 170,320" style="fill:white;stroke:none;"/> </mask> <g style="mask: url(#maskB)"> <g> <g transform="rotate(270)"> <line x1="0" y1="7" x2="0" y2="55" stroke="black" stroke-width="1.5" stroke-linecap="round" vector-effect="non-scaling-stroke"/> <g transform="translate(0,-10) scale(2.3)"> <g> <polygon points="0,10 10,0 0,-10 -10,0" style="fill:none;stroke:black;stroke-width:1.5" stroke-linejoin="round" vector-effect="non-scaling-stroke" /> <circle cx="0" cy="0" r="7" style="fill:none;stroke:black;stroke-width:1.5" vector-effect="non-scaling-stroke" /> <animateTransform attributeName="transform" attributeType="XML" type="rotate" from="0" to="-360" dur="2s" repeatCount="indefinite" /> </g> </g> <line x1="-10" y1="0" x2="10" y2="0" stroke="black" stroke-width="1.5" stroke-linecap="round" vector-effect="non-scaling-stroke" transform="translate(0,18) scale(1.4)" /> <circle cx="0" cy="0" r="10" style="fill:none;stroke:black;stroke-width:1.5" vector-effect="non-scaling-stroke" transform="translate(0,40) scale(1.5)" /> </g> <g transform="translate(0,-310)"> <g transform="rotate(270)"> <line x1="0" y1="7" x2="0" y2="55" stroke="black" stroke-width="1.5" stroke-linecap="round" vector-effect="non-scaling-stroke"/> <g transform="translate(0,-10) scale(2.3)"> <g> <polygon points="0,10 10,0 0,-10 -10,0" style="fill:none;stroke:black;stroke-width:1.5" stroke-linejoin="round" vector-effect="non-scaling-stroke" /> <circle cx="0" cy="0" r="7" style="fill:none;stroke:black;stroke-width:1.5" vector-effect="non-scaling-stroke" /> <animateTransform attributeName="transform" attributeType="XML" type="rotate" from="0" to="-360" dur="2s" repeatCount="indefinite" /> </g> </g> <line x1="-10" y1="0" x2="10" y2="0" stroke="black" stroke-width="1.5" stroke-linecap="round" vector-effect="non-scaling-stroke" transform="translate(0,18) scale(1.4)" /> <circle cx="0" cy="0" r="10" style="fill:none;stroke:black;stroke-width:1.5" vector-effect="non-scaling-stroke" transform="translate(0,40) scale(1.5)" /> </g> </g> <animateMotion path="M 210 50 L 210 360" dur="9s" repeatCount="indefinite"/> </g> </g> </svg>