<svg version="1.1" xmlns="http://www.w3.org/2000/svg" width="340" height="340"> <mask id="maskB"> <rect x="0" y="0" width="340" height="340" fill="black" /> <polygon points="4,10 70,180 330,330, 190,10" style="fill:white;stroke:none;"/> </mask> <g style="mask: url(#maskB)"> <g> <g> <line x1="0" y1="18" x2="0" y2="58" stroke="black" stroke-width="1.5" stroke-linecap="round" vector-effect="non-scaling-stroke"/> <g transform="translate(0,0) scale(1.7)"> <g> <circle cx="0" cy="0" r="10" style="fill:none;stroke:black;stroke-width:1.5" vector-effect="non-scaling-stroke" /> <circle cx="0" cy="0" r="5" style="fill:none;stroke:black;stroke-width:1.5" vector-effect="non-scaling-stroke" /> <line x1="0" y1="-10" x2="0" y2="10" stroke="black" stroke-width="1.5" stroke-linecap="round" vector-effect="non-scaling-stroke"/> <line x1="0" y1="-10" x2="0" y2="10" stroke="black" stroke-width="1.5" stroke-linecap="round" vector-effect="non-scaling-stroke" transform="rotate(45)"/> <line x1="0" y1="-10" x2="0" y2="10" stroke="black" stroke-width="1.5" stroke-linecap="round" vector-effect="non-scaling-stroke" transform="rotate(90)"/> <animateTransform attributeName="transform" attributeType="XML" type="rotate" from="0" to="-360" dur="2s" repeatCount="indefinite" /> </g> </g> <path d="M -10 -18 L -3 -18 M -10 -14 L -3 -14 M -10 -10 L -3 -10 M -10 -6 L -3 -6 M -10 -2 L -3 -2 M -10 2 L -3 2 M -10 6 L -3 6 M -10 10 L -3 10 M -10 14 L -3 14 M -10 18 L -3 18" style="fill:none;stroke:black;stroke-width:1.5" vector-effect="non-scaling-stroke" stroke-linejoin="flat" transform="translate(0,36) scale(1.4,0.8)" /> <line x1="-10" y1="0" x2="10" y2="0" stroke="black" stroke-width="1.5" stroke-linecap="round" vector-effect="non-scaling-stroke" transform="translate(0,55) scale(1.9)" /> <g transform="translate(0,75) scale(1.7)"> <g> <circle cx="0" cy="0" r="10" style="fill:none;stroke:black;stroke-width:1.5" vector-effect="non-scaling-stroke" /> <circle cx="0" cy="0" r="5" style="fill:none;stroke:black;stroke-width:1.5" vector-effect="non-scaling-stroke" /> <line x1="0" y1="-10" x2="0" y2="10" stroke="black" stroke-width="1.5" stroke-linecap="round" vector-effect="non-scaling-stroke"/> <line x1="0" y1="-10" x2="0" y2="10" stroke="black" stroke-width="1.5" stroke-linecap="round" vector-effect="non-scaling-stroke" transform="rotate(45)"/> <line x1="0" y1="-10" x2="0" y2="10" stroke="black" stroke-width="1.5" stroke-linecap="round" vector-effect="non-scaling-stroke" transform="rotate(90)"/> <animateTransform attributeName="transform" attributeType="XML" type="rotate" from="0" to="360" dur="2s" repeatCount="indefinite" /> </g> </g> </g> <g transform="translate(186,0)"> <g> <line x1="0" y1="18" x2="0" y2="58" stroke="black" stroke-width="1.5" stroke-linecap="round" vector-effect="non-scaling-stroke"/> <g transform="translate(0,0) scale(1.7)"> <g> <circle cx="0" cy="0" r="10" style="fill:none;stroke:black;stroke-width:1.5" vector-effect="non-scaling-stroke" /> <circle cx="0" cy="0" r="5" style="fill:none;stroke:black;stroke-width:1.5" vector-effect="non-scaling-stroke" /> <line x1="0" y1="-10" x2="0" y2="10" stroke="black" stroke-width="1.5" stroke-linecap="round" vector-effect="non-scaling-stroke"/> <line x1="0" y1="-10" x2="0" y2="10" stroke="black" stroke-width="1.5" stroke-linecap="round" vector-effect="non-scaling-stroke" transform="rotate(45)"/> <line x1="0" y1="-10" x2="0" y2="10" stroke="black" stroke-width="1.5" stroke-linecap="round" vector-effect="non-scaling-stroke" transform="rotate(90)"/> <animateTransform attributeName="transform" attributeType="XML" type="rotate" from="0" to="-360" dur="2s" repeatCount="indefinite" /> </g> </g> <path d="M -10 -18 L -3 -18 M -10 -14 L -3 -14 M -10 -10 L -3 -10 M -10 -6 L -3 -6 M -10 -2 L -3 -2 M -10 2 L -3 2 M -10 6 L -3 6 M -10 10 L -3 10 M -10 14 L -3 14 M -10 18 L -3 18" style="fill:none;stroke:black;stroke-width:1.5" vector-effect="non-scaling-stroke" stroke-linejoin="flat" transform="translate(0,36) scale(1.4,0.8)" /> <line x1="-10" y1="0" x2="10" y2="0" stroke="black" stroke-width="1.5" stroke-linecap="round" vector-effect="non-scaling-stroke" transform="translate(0,55) scale(1.9)" /> <g transform="translate(0,75) scale(1.7)"> <g> <circle cx="0" cy="0" r="10" style="fill:none;stroke:black;stroke-width:1.5" vector-effect="non-scaling-stroke" /> <circle cx="0" cy="0" r="5" style="fill:none;stroke:black;stroke-width:1.5" vector-effect="non-scaling-stroke" /> <line x1="0" y1="-10" x2="0" y2="10" stroke="black" stroke-width="1.5" stroke-linecap="round" vector-effect="non-scaling-stroke"/> <line x1="0" y1="-10" x2="0" y2="10" stroke="black" stroke-width="1.5" stroke-linecap="round" vector-effect="non-scaling-stroke" transform="rotate(45)"/> <line x1="0" y1="-10" x2="0" y2="10" stroke="black" stroke-width="1.5" stroke-linecap="round" vector-effect="non-scaling-stroke" transform="rotate(90)"/> <animateTransform attributeName="transform" attributeType="XML" type="rotate" from="0" to="360" dur="2s" repeatCount="indefinite" /> </g> </g> </g> </g> <animateMotion path="M 106 60 L -80 60" dur="6s" repeatCount="indefinite"/> </g> </g> <mask id="maskA"> <rect x="0" y="0" width="340" height="340" fill="black" /> <polygon points="8,130 190,10 330,330 90,340" style="fill:white;stroke:none;"/> </mask> <g style="mask: url(#maskA)"> <g> <g> <line x1="0" y1="48" x2="0" y2="100" stroke="black" stroke-width="1.5" stroke-linecap="round" vector-effect="non-scaling-stroke"/> <polygon points="0,10 10,0 0,-10 -10,0" style="fill:none;stroke:black;stroke-width:1.5" stroke-linejoin="round" vector-effect="non-scaling-stroke" transform="translate(0,20) scale(2.8)" /> <line x1="-10" y1="0" x2="10" y2="0" stroke="black" stroke-width="1.5" stroke-linecap="round" vector-effect="non-scaling-stroke" transform="translate(0,53) scale(1.8)" /> <g transform="translate(0,85) scale(1.5)"> <circle cx="0" cy="0" r="10" style="fill:none;stroke:black;stroke-width:1.5" vector-effect="non-scaling-stroke" /> <circle cx="0" cy="0" r="4" style="fill:none;stroke:black;stroke-width:1.5" vector-effect="non-scaling-stroke" /> </g> </g> <g transform="translate(240,0)"> <g> <line x1="0" y1="48" x2="0" y2="100" stroke="black" stroke-width="1.5" stroke-linecap="round" vector-effect="non-scaling-stroke"/> <polygon points="0,10 10,0 0,-10 -10,0" style="fill:none;stroke:black;stroke-width:1.5" stroke-linejoin="round" vector-effect="non-scaling-stroke" transform="translate(0,20) scale(2.8)" /> <line x1="-10" y1="0" x2="10" y2="0" stroke="black" stroke-width="1.5" stroke-linecap="round" vector-effect="non-scaling-stroke" transform="translate(0,53) scale(1.8)" /> <g transform="translate(0,85) scale(1.5)"> <circle cx="0" cy="0" r="10" style="fill:none;stroke:black;stroke-width:1.5" vector-effect="non-scaling-stroke" /> <circle cx="0" cy="0" r="4" style="fill:none;stroke:black;stroke-width:1.5" vector-effect="non-scaling-stroke" /> </g> </g> </g> <animateMotion path="M 240 205 L 0 205" dur="4s" repeatCount="indefinite"/> </g> </g> </svg>