<svg version="1.1" xmlns="http://www.w3.org/2000/svg" width="620" height="512">   <g transform="translate(165,355) scale(12)"> <g> <clipPath id="clipPathA"> <polygon  points="0,0 -12,-33 15,-33 15,0"  style="fill:none;stroke:black;stroke-width:1.5" vector-effect="non-scaling-stroke" stroke-linejoin="round" /> </clipPath> <circle  cx="0" cy="0" r="10" style="fill:none;stroke:black;stroke-width:1.5" vector-effect="non-scaling-stroke" clip-path="url(#clipPathA)"/> <line  x1="-3.4" y1="-9.35" x2="0" y2="0"  stroke="black" stroke-width="1.5" stroke-linecap="round" vector-effect="non-scaling-stroke" /> <line  x1="0" y1="0" x2="10" y2="0"  stroke="black" stroke-width="1.5" stroke-linecap="round" vector-effect="non-scaling-stroke" /> </g> </g>   <line  x1="45" y1="25" x2="165" y2="355"  stroke="black" stroke-width="1.5" stroke-linecap="round" vector-effect="non-scaling-stroke" /> <line  x1="165" y1="355" x2="525" y2="355"  stroke="black" stroke-width="1.5" stroke-linecap="round" vector-effect="non-scaling-stroke" />   <line  x1="35" y1="70" x2="240" y2="70"  stroke="black" stroke-width="1.5" stroke-linecap="round" vector-effect="non-scaling-stroke" /> <line  x1="525" y1="335" x2="525" y2="375"  stroke="black" stroke-width="1.5" stroke-linecap="round" vector-effect="non-scaling-stroke" /> <line  x1="285" y1="355" x2="285" y2="375"  stroke="black" stroke-width="1.5" stroke-linecap="round" vector-effect="non-scaling-stroke" /> <path d="M -10 -18 L -3 -18 M -10 -14 L -3 -14 M -10 -10 L -3 -10 M -10 -6 L -3 -6 M -10 -2 L -3 -2 M -10 2 L -3 2 M -10 6 L -3 6 M -10 10 L -3 10 M -10 14 L -3 14 M -10 18 L -3 18" style="fill:none;stroke:black;stroke-width:1.5" vector-effect="non-scaling-stroke" stroke-linejoin="flat" transform="translate(482,355) scale(-1.9) rotate(90)" /> <path d="M -10 -18 L -3 -18 M -10 -14 L -3 -14 M -10 -10 L -3 -10 M -10 -6 L -3 -6 M -10 -2 L -3 -2 M -10 2 L -3 2 M -10 6 L -3 6 M -10 10 L -3 10 M -10 14 L -3 14 M -10 18 L -3 18" style="fill:none;stroke:black;stroke-width:1.5" vector-effect="non-scaling-stroke" stroke-linejoin="flat" transform="translate(405,355) scale(-1.9) rotate(90)" /> <path d="M -10 -18 L -3 -18 M -10 -14 L -3 -14 M -10 -10 L -3 -10 M -10 -6 L -3 -6 M -10 -2 L -3 -2 M -10 2 L -3 2 M -10 6 L -3 6 M -10 10 L -3 10 M -10 14 L -3 14 M -10 18 L -3 18" style="fill:none;stroke:black;stroke-width:1.5" vector-effect="non-scaling-stroke" stroke-linejoin="flat" transform="translate(328,355) scale(-1.9) rotate(90)" />   <circle  cx="0" cy="0" r="10" style="fill:none;stroke:black;stroke-width:1.5" vector-effect="non-scaling-stroke"  transform="translate(430,180) scale(8)" /> <circle  cx="0" cy="0" r="10" style="fill:none;stroke:black;stroke-width:1.5" vector-effect="non-scaling-stroke"  transform="translate(430,180) scale(14)" />     </svg>