<svg version="1.1" xmlns="http://www.w3.org/2000/svg" width="620" height="512">  <mask id="maskA"> <rect x="0" y="0" width="620" height="480" fill="black" /> <polygon  points="130,70 270,70 270,355 130,355"  style="fill:white;stroke:none;"/> <polygon  points="45,25 165,355 165,360 45,360"  style="fill:black;stroke:none;"/> </mask> <g style="mask: url(#maskA)"> <g> <g transform="rotate(270)">   <line  x1="0" y1="7" x2="0" y2="25"  stroke="black" stroke-width="1.5" stroke-linecap="round" vector-effect="non-scaling-stroke"/>   <g transform="translate(0,-10) scale(2.2)"> <g> <polygon  points="0,10 10,0 0,-10 -10,0"  style="fill:none;stroke:black;stroke-width:1.5" stroke-linejoin="round" vector-effect="non-scaling-stroke" /> <circle  cx="0" cy="0" r="7" style="fill:none;stroke:black;stroke-width:1.5" vector-effect="non-scaling-stroke" /> <animateTransform attributeName="transform" attributeType="XML" type="rotate" from="0" to="-360" dur="1s" repeatCount="indefinite" />  </g> </g>   <line  x1="-10" y1="0" x2="10" y2="0"  stroke="black" stroke-width="1.5" stroke-linecap="round" vector-effect="non-scaling-stroke" transform="translate(0,18) scale(1.2)" />   <g  transform="translate(0,40) scale(1.5)"> <g> <circle  cx="0" cy="0" r="10" style="fill:none;stroke:black;stroke-width:1.5" vector-effect="non-scaling-stroke" /> <circle  cx="0" cy="0" r="5" style="fill:none;stroke:black;stroke-width:1.5" vector-effect="non-scaling-stroke" /> <line  x1="0" y1="-10" x2="0" y2="10"  stroke="black" stroke-width="1.5" stroke-linecap="round" vector-effect="non-scaling-stroke"/> <line  x1="0" y1="-10" x2="0" y2="10"  stroke="black" stroke-width="1.5" stroke-linecap="round" vector-effect="non-scaling-stroke" transform="rotate(45)"/> <line  x1="0" y1="-10" x2="0" y2="10"  stroke="black" stroke-width="1.5" stroke-linecap="round" vector-effect="non-scaling-stroke" transform="rotate(90)"/> <animateTransform attributeName="transform" attributeType="XML" type="rotate" from="0" to="360" dur="1s" repeatCount="indefinite" />  </g> </g> </g>   <g transform="translate(0,285)"> <g transform="rotate(270)">   <line  x1="0" y1="7" x2="0" y2="25"  stroke="black" stroke-width="1.5" stroke-linecap="round" vector-effect="non-scaling-stroke"/>   <g transform="translate(0,-10) scale(2.2)"> <g> <polygon  points="0,10 10,0 0,-10 -10,0"  style="fill:none;stroke:black;stroke-width:1.5" stroke-linejoin="round" vector-effect="non-scaling-stroke" /> <circle  cx="0" cy="0" r="7" style="fill:none;stroke:black;stroke-width:1.5" vector-effect="non-scaling-stroke" /> <animateTransform attributeName="transform" attributeType="XML" type="rotate" from="0" to="-360" dur="1s" repeatCount="indefinite" />  </g> </g>   <line  x1="-10" y1="0" x2="10" y2="0"  stroke="black" stroke-width="1.5" stroke-linecap="round" vector-effect="non-scaling-stroke" transform="translate(0,18) scale(1.2)" />   <g  transform="translate(0,40) scale(1.5)"> <g> <circle  cx="0" cy="0" r="10" style="fill:none;stroke:black;stroke-width:1.5" vector-effect="non-scaling-stroke" /> <circle  cx="0" cy="0" r="5" style="fill:none;stroke:black;stroke-width:1.5" vector-effect="non-scaling-stroke" /> <line  x1="0" y1="-10" x2="0" y2="10"  stroke="black" stroke-width="1.5" stroke-linecap="round" vector-effect="non-scaling-stroke"/> <line  x1="0" y1="-10" x2="0" y2="10"  stroke="black" stroke-width="1.5" stroke-linecap="round" vector-effect="non-scaling-stroke" transform="rotate(45)"/> <line  x1="0" y1="-10" x2="0" y2="10"  stroke="black" stroke-width="1.5" stroke-linecap="round" vector-effect="non-scaling-stroke" transform="rotate(90)"/> <animateTransform attributeName="transform" attributeType="XML" type="rotate" from="0" to="360" dur="1s" repeatCount="indefinite" />  </g> </g> </g> </g>   <animateMotion path="M 182 300 L 182 15"  dur="1s"  repeatCount="indefinite"/> </g> </g>   <g transform="translate(240,70)"> <g>   <line  x1="0" y1="0" x2="0" y2="43"  stroke="black" stroke-width="1.5" stroke-linecap="round" vector-effect="non-scaling-stroke"/>   <g transform="translate(0,22) scale(1)"> <circle  cx="4" cy="-14" r="1" style="fill:black;stroke:none;stroke-width:none" /> <circle  cx="4" cy="-10" r="1" style="fill:black;stroke:none;stroke-width:none" /> <circle  cx="4" cy="-6" r="1" style="fill:black;stroke:none;stroke-width:none" /> <circle  cx="4" cy="-2" r="1" style="fill:black;stroke:none;stroke-width:none" /> <circle  cx="4" cy="2" r="1" style="fill:black;stroke:none;stroke-width:none" /> <circle  cx="4" cy="6" r="1" style="fill:black;stroke:none;stroke-width:none" /> <circle  cx="4" cy="10" r="1" style="fill:black;stroke:none;stroke-width:none" /> <circle  cx="4" cy="14" r="1" style="fill:black;stroke:none;stroke-width:none" /> </g>   <line  x1="-10" y1="0" x2="10" y2="0"  stroke="black" stroke-width="1.5" stroke-linecap="round" vector-effect="non-scaling-stroke" transform="translate(0,40) scale(0.7)" />   <g transform="translate(0,55) scale(1.2)"> <polygon  points="0,10 10,0 0,-10 -10,0"  style="fill:none;stroke:black;stroke-width:1.5" stroke-linejoin="round" vector-effect="non-scaling-stroke" /> <circle  cx="0" cy="0" r="6" style="fill:none;stroke:black;stroke-width:1.5" vector-effect="non-scaling-stroke" /> </g>   <animateTransform attributeName="transform" attributeType="XML" type="rotate"  from="0" to="-360"  dur="1.25s"  repeatCount="indefinite" />  </g> </g>   <mask id="maskB"> <rect x="0" y="0" width="620" height="480" fill="black" /> <circle  cx="0" cy="0" r="10" style="fill:white;stroke:none"  transform="translate(430,180) scale(8)" /> <polygon  points="330,180 540,180 540,355 330,355"  style="fill:white;stroke:none;"/> </mask> <g style="mask: url(#maskB)"> <g> <g transform="rotate(270)">   <line  x1="0" y1="4" x2="0" y2="20"  stroke="black" stroke-width="1.5" stroke-linecap="round" vector-effect="non-scaling-stroke"/>   <g transform="translate(0,-10) scale(1.4)"> <g> <circle  cx="0" cy="0" r="10" style="fill:none;stroke:black;stroke-width:1.5" vector-effect="non-scaling-stroke" /> <circle  cx="0" cy="0" r="7.5" style="fill:none;stroke:black;stroke-width:1.5" vector-effect="non-scaling-stroke" /> <line  x1="0" y1="-7.5" x2="0" y2="7.5"  stroke="black" stroke-width="1.5" stroke-linecap="round" vector-effect="non-scaling-stroke"/> <line  x1="0" y1="-7.5" x2="0" y2="7.5"  stroke="black" stroke-width="1.5" stroke-linecap="round" vector-effect="non-scaling-stroke" transform="rotate(11.25)"/> <line  x1="0" y1="-7.5" x2="0" y2="7.5"  stroke="black" stroke-width="1.5" stroke-linecap="round" vector-effect="non-scaling-stroke" transform="rotate(22.5)"/> <line  x1="0" y1="-7.5" x2="0" y2="7.5"  stroke="black" stroke-width="1.5" stroke-linecap="round" vector-effect="non-scaling-stroke" transform="rotate(33.75)"/> <line  x1="0" y1="-7.5" x2="0" y2="7.5"  stroke="black" stroke-width="1.5" stroke-linecap="round" vector-effect="non-scaling-stroke" transform="rotate(45)"/> <animateTransform attributeName="transform" attributeType="XML" type="rotate" from="0" to="360" dur="2s" repeatCount="indefinite" />  </g> </g>   <line  x1="-10" y1="0" x2="10" y2="0"  stroke="black" stroke-width="1.5" stroke-linecap="round" vector-effect="non-scaling-stroke" transform="translate(0,11) scale(1.5)" />   <g  transform="translate(0,38) scale(1.8)"> <g> <circle  cx="0" cy="0" r="10" style="fill:none;stroke:black;stroke-width:1.5" vector-effect="non-scaling-stroke" /> <line  x1="0" y1="-10" x2="0" y2="10"  stroke="black" stroke-width="1.5" stroke-linecap="round" vector-effect="non-scaling-stroke"/> <animateTransform attributeName="transform" attributeType="XML" type="rotate" from="0" to="-360" dur="2s" repeatCount="indefinite" />  </g> </g> </g>   <g transform="translate(0,255)"> <g transform="rotate(270)">   <line  x1="0" y1="4" x2="0" y2="20"  stroke="black" stroke-width="1.5" stroke-linecap="round" vector-effect="non-scaling-stroke"/>   <g transform="translate(0,-10) scale(1.4)"> <g> <circle  cx="0" cy="0" r="10" style="fill:none;stroke:black;stroke-width:1.5" vector-effect="non-scaling-stroke" /> <circle  cx="0" cy="0" r="7.5" style="fill:none;stroke:black;stroke-width:1.5" vector-effect="non-scaling-stroke" /> <line  x1="0" y1="-7.5" x2="0" y2="7.5"  stroke="black" stroke-width="1.5" stroke-linecap="round" vector-effect="non-scaling-stroke"/> <line  x1="0" y1="-7.5" x2="0" y2="7.5"  stroke="black" stroke-width="1.5" stroke-linecap="round" vector-effect="non-scaling-stroke" transform="rotate(11.25)"/> <line  x1="0" y1="-7.5" x2="0" y2="7.5"  stroke="black" stroke-width="1.5" stroke-linecap="round" vector-effect="non-scaling-stroke" transform="rotate(22.5)"/> <line  x1="0" y1="-7.5" x2="0" y2="7.5"  stroke="black" stroke-width="1.5" stroke-linecap="round" vector-effect="non-scaling-stroke" transform="rotate(33.75)"/> <line  x1="0" y1="-7.5" x2="0" y2="7.5"  stroke="black" stroke-width="1.5" stroke-linecap="round" vector-effect="non-scaling-stroke" transform="rotate(45)"/> <animateTransform attributeName="transform" attributeType="XML" type="rotate" from="0" to="360" dur="2s" repeatCount="indefinite" />  </g> </g>   <line  x1="-10" y1="0" x2="10" y2="0"  stroke="black" stroke-width="1.5" stroke-linecap="round" vector-effect="non-scaling-stroke" transform="translate(0,11) scale(1.5)" />   <g  transform="translate(0,38) scale(1.8)"> <g> <circle  cx="0" cy="0" r="10" style="fill:none;stroke:black;stroke-width:1.5" vector-effect="non-scaling-stroke" /> <line  x1="0" y1="-10" x2="0" y2="10"  stroke="black" stroke-width="1.5" stroke-linecap="round" vector-effect="non-scaling-stroke"/> <animateTransform attributeName="transform" attributeType="XML" type="rotate" from="0" to="-360" dur="2s" repeatCount="indefinite" />  </g> </g> </g> </g>   <animateMotion path="M 415 0 L 415 255"  dur="1.9s"  repeatCount="indefinite"/> </g> </g>   <g transform="translate(62,70)"> <g>   <line  x1="0" y1="0" x2="0" y2="50"  stroke="black" stroke-width="1.5" stroke-linecap="round" vector-effect="non-scaling-stroke"/>   <g transform="translate(0,22) scale(1.3)"> <g> <polygon  points="0,10 10,0 0,-10 -10,0"  style="fill:none;stroke:black;stroke-width:1.5" stroke-linejoin="round" vector-effect="non-scaling-stroke" /> <circle  cx="0" cy="0" r="7" style="fill:none;stroke:black;stroke-width:1.5" vector-effect="non-scaling-stroke" /> <animateTransform attributeName="transform" attributeType="XML" type="rotate" from="0" to="-360" dur="1.75s" repeatCount="indefinite" />  </g> </g>   <line  x1="-10" y1="0" x2="10" y2="0"  stroke="black" stroke-width="1.5" stroke-linecap="round" vector-effect="non-scaling-stroke" transform="translate(0,38) scale(0.7)" />   <animateTransform attributeName="transform" attributeType="XML" type="rotate"  from="0" to="360"  dur="2.5s"  repeatCount="indefinite" />  </g> </g>   <g transform="translate(165,355)"> <g>   <line  x1="0" y1="-31" x2="0" y2="45"  stroke="black" stroke-width="1.5" stroke-linecap="round" vector-effect="non-scaling-stroke"/>   <g  transform="translate(0,-58) scale(2.6)"> <g> <circle  cx="0" cy="0" r="10" style="fill:none;stroke:black;stroke-width:1.5" vector-effect="non-scaling-stroke" /> <line  x1="0" y1="-10" x2="0" y2="10"  stroke="black" stroke-width="1.5" stroke-linecap="round" vector-effect="non-scaling-stroke"/> <animateTransform attributeName="transform" attributeType="XML" type="rotate" from="0" to="360" dur="2s" repeatCount="indefinite" />  </g> </g>   
<line  x1="-10" y1="0" x2="10" y2="0"  stroke="black" stroke-width="1.5" stroke-linecap="round" vector-effect="non-scaling-stroke" transform="translate(0,0) scale(2)" />   <polygon  points="0,0 -5.78,0 0,-10"  style="fill:none;stroke:black;stroke-width:1.5" vector-effect="non-scaling-stroke" stroke-linejoin="round" transform="translate(0,78) scale(5.6)" />   <animateTransform attributeName="transform" attributeType="XML" type="rotate"  from="0" to="360"  dur="3.5s"  repeatCount="indefinite" />  </g> </g>   <g transform="translate(430,180)"> <g>   <line  x1="0" y1="0" x2="0" y2="80"  stroke="black" stroke-width="1.5" stroke-linecap="round" vector-effect="non-scaling-stroke"/>   <line  x1="-10" y1="0" x2="10" y2="0"  stroke="black" stroke-width="1.5" stroke-linecap="round" vector-effect="non-scaling-stroke" transform="translate(0,38) scale(1)" />   <g transform="translate(0,60) scale(2)"> <polygon  points="0,10 10,0 0,-10 -10,0"  style="fill:none;stroke:black;stroke-width:1.5" stroke-linejoin="round" vector-effect="non-scaling-stroke" /> <circle  cx="0" cy="0" r="5.5" style="fill:none;stroke:black;stroke-width:1.5" vector-effect="non-scaling-stroke" /> </g>   <animateTransform attributeName="transform" attributeType="XML" type="rotate"  from="0" to="360"  dur="5s"  repeatCount="indefinite" />  </g> </g>   <mask id="maskC"> <rect x="0" y="0" width="340" height="340" fill="black" /> <polygon  points="280,290 280,390 525,390 525,290"  style="fill:white;stroke:none;"/> <circle  cx="165" cy="355" r="120" style="fill:black;stroke:none"/> </mask> <g style="mask: url(#maskC)"> <g> <g transform="rotate(270)">   <line  x1="0" y1="0" x2="0" y2="50"  stroke="black" stroke-width="1.5" stroke-linecap="round" vector-effect="non-scaling-stroke"/>   <line  x1="-10" y1="0" x2="10" y2="0"  stroke="black" stroke-width="1.5" stroke-linecap="round" vector-effect="non-scaling-stroke" transform="translate(0,34) scale(1.9)" /> </g>   <g transform="translate(-240,0)"> <g transform="rotate(270)">   <line  x1="0" y1="0" x2="0" y2="50"  stroke="black" stroke-width="1.5" stroke-linecap="round" vector-effect="non-scaling-stroke"/>   <line  x1="-10" y1="0" x2="10" y2="0"  stroke="black" stroke-width="1.5" stroke-linecap="round" vector-effect="non-scaling-stroke" transform="translate(0,34) scale(1.9)" /> </g> </g>   <animateMotion path="M 595 355 L 355 355"  dur="7s"  repeatCount="indefinite"/> </g> </g>   <g transform="translate(165,355) scale(12)"> <g>   <g transform="translate(-0.5,-8.5) rotate(-90) scale(0.2)">   <line  x1="0" y1="-18" x2="0" y2="6"  stroke="black" stroke-width="1.5" stroke-linecap="round" vector-effect="non-scaling-stroke"/>   <g transform="translate(0,-24) scale(1.7)"> <polygon  points="0,0 -5.78,0 0,10"  style="fill:none;stroke:black;stroke-width:1.5" vector-effect="non-scaling-stroke" stroke-linejoin="round" /> <circle  cx="-2" cy="2" r="1.3" style="fill:none;stroke:black;stroke-width:1.5" vector-effect="non-scaling-stroke" /> </g>   <line  x1="-10" y1="0" x2="10" y2="0"  stroke="black" stroke-width="1.5" stroke-linecap="round" vector-effect="non-scaling-stroke" transform="translate(0,-5) scale(0.5)" />   <g  transform="translate(0,7) scale(0.7)"> <g> <circle  cx="0" cy="0" r="10" style="fill:none;stroke:black;stroke-width:1.5" vector-effect="non-scaling-stroke" /> <circle  cx="0" cy="0" r="5" style="fill:none;stroke:black;stroke-width:1.5" vector-effect="non-scaling-stroke" /> <line  x1="0" y1="-10" x2="0" y2="10"  stroke="black" stroke-width="1.5" stroke-linecap="round" vector-effect="non-scaling-stroke"/> <line  x1="0" y1="-10" x2="0" y2="10"  stroke="black" stroke-width="1.5" stroke-linecap="round" vector-effect="non-scaling-stroke" transform="rotate(45)"/> <line  x1="0" y1="-10" x2="0" y2="10"  stroke="black" stroke-width="1.5" stroke-linecap="round" vector-effect="non-scaling-stroke" transform="rotate(90)"/> <animateTransform attributeName="transform" attributeType="XML" type="rotate" from="0" to="360" dur="2s" repeatCount="indefinite" />  </g> </g> </g>   <animateTransform attributeName="transform" attributeType="XML" type="rotate"  from="180" to="540"  dur="9.5s"  repeatCount="indefinite" />  </g> </g>   <mask id="maskD"> <rect x="0" y="0" width="620" height="480" fill="black" /> <polygon  points="120,70 240,70 240,355 120,355"  style="fill:white;stroke:none;"/> <circle  cx="165" cy="355" r="120" style="fill:black;stroke:none"/> </mask> <g style="mask: url(#maskD)"> <g> <g transform="rotate(270)">  <line x1="0" y1="8" x2="0" y2="18" stroke="black" stroke-width="1.5" stroke-linecap="round" vector-effect="non-scaling-stroke"/> <g transform="translate(0,-10) scale(2.5)"> <circle  cx="0" cy="0" r="7" style="fill:none;stroke:black;stroke-width:1.5" vector-effect="non-scaling-stroke" /> </g>   <line  x1="-10" y1="0" x2="10" y2="0"  stroke="black" stroke-width="1.5" stroke-linecap="round" vector-effect="non-scaling-stroke" transform="translate(0,14) scale(1.6)" /> </g>   <g transform="translate(0,165)"> <g transform="rotate(270)">  <line x1="0" y1="8" x2="0" y2="18" stroke="black" stroke-width="1.5" stroke-linecap="round" vector-effect="non-scaling-stroke"/> <g transform="translate(0,-10) scale(2.5)"> <circle  cx="0" cy="0" r="7" style="fill:none;stroke:black;stroke-width:1.5" vector-effect="non-scaling-stroke" /> </g>   <line  x1="-10" y1="0" x2="10" y2="0"  stroke="black" stroke-width="1.5" stroke-linecap="round" vector-effect="non-scaling-stroke" transform="translate(0,14) scale(1.6)" /> </g> </g>   <animateMotion path="M 154 15 L 154 180"  dur="12s"  repeatCount="indefinite"/> </g> </g>   <g transform="translate(430,180)"> <g>   <line  x1="0" y1="-38" x2="0" y2="20"  stroke="black" stroke-width="1.5" stroke-linecap="round" vector-effect="non-scaling-stroke"/>   <g transform="translate(0,-59) scale(2)"> <polygon  points="0,10 10,0 0,-10 -10,0"  style="fill:none;stroke:black;stroke-width:1.5" stroke-linejoin="round" vector-effect="non-scaling-stroke" /> <circle  cx="0" cy="0" r="6.5" style="fill:none;stroke:black;stroke-width:1.5" vector-effect="non-scaling-stroke" /> </g>   <line  x1="-10" y1="0" x2="10" y2="0"  stroke="black" stroke-width="1.5" stroke-linecap="round" vector-effect="non-scaling-stroke" transform="translate(0,-32) scale(1.4)" />   <g transform="translate(0,50) scale(3)"> <g> <circle  cx="0" cy="0" r="10" style="fill:none;stroke:black;stroke-width:1.5" vector-effect="non-scaling-stroke" /> <circle  cx="0" cy="0" r="7.5" style="fill:none;stroke:black;stroke-width:1.5" vector-effect="non-scaling-stroke" /> <line  x1="0" y1="-7.5" x2="0" y2="7.5"  stroke="black" stroke-width="1.5" stroke-linecap="round" vector-effect="non-scaling-stroke"/> <line  x1="0" y1="-7.5" x2="0" y2="7.5"  stroke="black" stroke-width="1.5" stroke-linecap="round" vector-effect="non-scaling-stroke" transform="rotate(11.25)"/> <line  x1="0" y1="-7.5" x2="0" y2="7.5"  stroke="black" stroke-width="1.5" stroke-linecap="round" vector-effect="non-scaling-stroke" transform="rotate(22.5)"/> <line  x1="0" y1="-7.5" x2="0" y2="7.5"  stroke="black" stroke-width="1.5" stroke-linecap="round" vector-effect="non-scaling-stroke" transform="rotate(33.75)"/> <line  x1="0" y1="-7.5" x2="0" y2="7.5"  stroke="black" stroke-width="1.5" stroke-linecap="round" vector-effect="non-scaling-stroke" transform="rotate(45)"/> <animateTransform attributeName="transform" attributeType="XML" type="rotate" from="0" to="360" dur="2s" repeatCount="indefinite" />  </g> </g>   <animateTransform attributeName="transform" attributeType="XML" type="rotate"  from="0" to="-360"  dur="15s"  repeatCount="indefinite" />  </g> </g>   <g transform="translate(430,180) scale(14)"> <g>   <g transform="translate(-0.5,-7.7) rotate(-90) scale(0.2)">   <line  x1="0" y1="-10" x2="0" y2="20"  stroke="black" stroke-width="1.5" stroke-linecap="round" vector-effect="non-scaling-stroke"/>   <line  x1="-10" y1="0" x2="10" y2="0"  stroke="black" stroke-width="1.5" stroke-linecap="round" vector-effect="non-scaling-stroke" transform="translate(0,-5) scale(0.5)" />   <g  transform="translate(0,10) scale(1.05)"> <g> <circle  cx="0" cy="0" r="10" style="fill:none;stroke:black;stroke-width:1.5" vector-effect="non-scaling-stroke" /> <line  x1="0" y1="-10" x2="0" y2="10"  stroke="black" stroke-width="1.5" stroke-linecap="round" vector-effect="non-scaling-stroke"/> <animateTransform attributeName="transform" attributeType="XML" type="rotate" from="0" to="-360" dur="2s" repeatCount="indefinite" />  </g> </g> </g>   <animateTransform attributeName="transform" attributeType="XML" type="rotate"  from="360" to="0"  dur="18s"  repeatCount="indefinite" />  </g> </g>   <g transform="translate(430,180) scale(14)"> <g> <g transform="translate(-0.5,-6.7) rotate(-90) scale(0.2)">   <line  x1="0" y1="1" x2="0" y2="3"  stroke="black" stroke-width="1.5" stroke-linecap="round" vector-effect="non-scaling-stroke"/>   <g  transform="translate(0,-4) scale(0.5)"> <circle  cx="0" cy="0" r="10" style="fill:none;stroke:black;stroke-width:1.5" vector-effect="non-scaling-stroke" /> <circle  cx="0" cy="0" r="7" style="fill:none;stroke:black;stroke-width:1.5" vector-effect="non-scaling-stroke" /> </g>   <line  x1="-10" y1="0" x2="10" y2="0"  stroke="black" stroke-width="1.5" stroke-linecap="round" vector-effect="non-scaling-stroke" transform="translate(0,2) scale(0.45)" />   <polygon  points="0,10 10,0 0,-10 -10,0"  style="fill:none;stroke:black;stroke-width:1.5" stroke-linejoin="round" vector-effect="non-scaling-stroke" transform="translate(0,8) scale(0.5)" /> </g>   <animateTransform attributeName="transform" attributeType="XML" type="rotate"  from="20" to="380"  dur="22s"  repeatCount="indefinite" />  </g> </g>   <g transform="translate(165,355)"> <g>   <line  x1="0" y1="0" x2="0" y2="150"  stroke="black" stroke-width="1.5" stroke-linecap="round" vector-effect="non-scaling-stroke"/>   <g transform="translate(0,120) scale(1.5)"> <polygon  points="0,10 10,0 0,-10 -10,0"  style="fill:none;stroke:black;stroke-width:1.5" stroke-linejoin="round" vector-effect="non-scaling-stroke" /> </g>   <line  x1="-10" y1="0" x2="10" y2="0"  stroke="black" stroke-width="1.5" stroke-linecap="round" vector-effect="non-scaling-stroke" transform="translate(0,140) scale(0.9)" />   <animateTransform attributeName="transform" attributeType="XML" type="rotate"  from="180" to="-180"  dur="26s"  repeatCount="indefinite" />  </g> </g>   <g transform="translate(430,180) scale(14)"> <g> <g transform="translate(-0.5,-8.8) rotate(-90) scale(0.2)">   <line  x1="0" y1="0" x2="0" y2="4"  stroke="black" stroke-width="1.5" stroke-linecap="round" vector-effect="non-scaling-stroke"/>   <line  x1="-10" y1="0" x2="10" y2="0"  stroke="black" stroke-width="1.5" stroke-linecap="round" vector-effect="non-scaling-stroke" transform="translate(0,2) scale(0.3)" />   <polygon  points="0,10 10,0 0,-10 -10,0"  style="fill:none;stroke:black;stroke-width:1.5" stroke-linejoin="round" vector-effect="non-scaling-stroke" transform="translate(0,9) scale(0.5)" /> </g>   <animateTransform attributeName="transform" attributeType="XML" type="rotate"  from="20" to="380"  dur="30s"  repeatCount="indefinite" />  </g> </g> </svg>