<svg version="1.1" xmlns="http://www.w3.org/2000/svg" width="340" height="340"> <mask id="maskD"> <rect x="0" y="0" width="340" height="340" fill="black" /> <polygon points="130,285 230,285 230,45 130,45" style="fill:white;stroke:none;"/> <circle cx="0" cy="0" r="10" style="fill:black;stroke:none" transform="translate(170,45) scale(4)" /> </mask> <g style="mask: url(#maskA)"> <g> <g transform="rotate(270)"> <line x1="0" y1="15" x2="0" y2="40" stroke="black" stroke-width="1.5" stroke-linecap="round" vector-effect="non-scaling-stroke"/> <g transform="translate(0,0) scale(1.7)"> <g> <circle cx="0" cy="0" r="10" style="fill:none;stroke:black;stroke-width:1.5" vector-effect="non-scaling-stroke" /> <circle cx="0" cy="0" r="5" style="fill:none;stroke:black;stroke-width:1.5" vector-effect="non-scaling-stroke" /> <line x1="0" y1="-10" x2="0" y2="10" stroke="black" stroke-width="1.5" stroke-linecap="round" vector-effect="non-scaling-stroke"/> <line x1="0" y1="-10" x2="0" y2="10" stroke="black" stroke-width="1.5" stroke-linecap="round" vector-effect="non-scaling-stroke" transform="rotate(45)"/> <line x1="0" y1="-10" x2="0" y2="10" stroke="black" stroke-width="1.5" stroke-linecap="round" vector-effect="non-scaling-stroke" transform="rotate(-45)"/> </g> </g> <line x1="-10" y1="0" x2="10" y2="0" stroke="black" stroke-width="1.5" stroke-linecap="round" vector-effect="non-scaling-stroke" transform="translate(0,33) scale(0.8)" /> </g> <g transform="translate(0,-105)"> <g transform="rotate(270)"> <line x1="0" y1="15" x2="0" y2="40" stroke="black" stroke-width="1.5" stroke-linecap="round" vector-effect="non-scaling-stroke"/> <g transform="translate(0,0) scale(1.7)"> <g> <circle cx="0" cy="0" r="10" style="fill:none;stroke:black;stroke-width:1.5" vector-effect="non-scaling-stroke" /> <circle cx="0" cy="0" r="5" style="fill:none;stroke:black;stroke-width:1.5" vector-effect="non-scaling-stroke" /> <line x1="0" y1="-10" x2="0" y2="10" stroke="black" stroke-width="1.5" stroke-linecap="round" vector-effect="non-scaling-stroke"/> <line x1="0" y1="-10" x2="0" y2="10" stroke="black" stroke-width="1.5" stroke-linecap="round" vector-effect="non-scaling-stroke" transform="rotate(45)"/> <line x1="0" y1="-10" x2="0" y2="10" stroke="black" stroke-width="1.5" stroke-linecap="round" vector-effect="non-scaling-stroke" transform="rotate(-45)"/> </g> </g> <line x1="-10" y1="0" x2="10" y2="0" stroke="black" stroke-width="1.5" stroke-linecap="round" vector-effect="non-scaling-stroke" transform="translate(0,33) scale(0.8)" /> </g> </g> <animateMotion path="M 159 230 L 159 335" dur="9s" repeatCount="indefinite"/> </g> </g> <mask id="maskB"> <rect x="0" y="0" width="340" height="340" fill="black" /> <polygon points="35,160 305,160 305,200 35,200" style="fill:white;stroke:none;"/> </mask> <g style="mask: url(#maskB)"> <g> <g transform="rotate(270)"> <line x1="0" y1="14" x2="0" y2="30" stroke="black" stroke-width="1.5" stroke-linecap="round" vector-effect="non-scaling-stroke"/> <polygon points="0,10 10,0 0,-10 -10,0" style="fill:none;stroke:black;stroke-width:1.5" stroke-linejoin="round" vector-effect="non-scaling-stroke" transform="translate(0,0) scale(1.45)" /> <line x1="-10" y1="0" x2="10" y2="0" stroke="black" stroke-width="1.5" stroke-linecap="round" vector-effect="non-scaling-stroke" transform="translate(0,20) scale(1.2)" /> </g> <g transform="translate(-270,0)"> <g transform="rotate(270)"> <line x1="0" y1="14" x2="0" y2="30" stroke="black" stroke-width="1.5" stroke-linecap="round" vector-effect="non-scaling-stroke"/> <polygon points="0,10 10,0 0,-10 -10,0" style="fill:none;stroke:black;stroke-width:1.5" stroke-linejoin="round" vector-effect="non-scaling-stroke" transform="translate(0,0) scale(1.45)" /> <line x1="-10" y1="0" x2="10" y2="0" stroke="black" stroke-width="1.5" stroke-linecap="round" vector-effect="non-scaling-stroke" transform="translate(0,20) scale(1.2)" /> </g> </g> <animateMotion path="M 135 180 L 405 180" dur="4s" repeatCount="indefinite"/> </g> </g> <mask id="maskA"> <rect x="0" y="0" width="340" height="340" fill="black" /> <polygon points="130,180 230,180 230,285 130,285" style="fill:white;stroke:none;"/> </mask> <g style="mask: url(#maskD)"> <g> <g transform="rotate(270)"> <line x1="0" y1="26" x2="0" y2="53" stroke="black" stroke-width="1.5" stroke-linecap="round" vector-effect="non-scaling-stroke"/> <polygon points="0,10 10,0 0,-10 -10,0" style="fill:none;stroke:black;stroke-width:1.5" stroke-linejoin="round" vector-effect="non-scaling-stroke" transform="translate(0,0) scale(1.2)" /> <polygon points="10,0 0,10 -10,0" style="fill:none;stroke:black;stroke-width:1.5" stroke-linejoin="round" vector-effect="non-scaling-stroke" transform="translate(0,13) scale(1.2)" /> <line x1="-10" y1="0" x2="10" y2="0" stroke="black" stroke-width="1.5" stroke-linecap="round" vector-effect="non-scaling-stroke" transform="translate(0,28) scale(1)" /> <circle cx="0" cy="0" r="10" style="fill:none;stroke:black;stroke-width:1.5" vector-effect="non-scaling-stroke" transform="translate(0,43) scale(1)" /> </g> <g transform="translate(0,200)"> <g transform="rotate(270)"> <line x1="0" y1="26" x2="0" y2="53" stroke="black" stroke-width="1.5" stroke-linecap="round" vector-effect="non-scaling-stroke"/> <polygon points="0,10 10,0 0,-10 -10,0" style="fill:none;stroke:black;stroke-width:1.5" stroke-linejoin="round" vector-effect="non-scaling-stroke" transform="translate(0,0) scale(1.2)" /> <polygon points="10,0 0,10 -10,0" style="fill:none;stroke:black;stroke-width:1.5" stroke-linejoin="round" vector-effect="non-scaling-stroke" transform="translate(0,13) scale(1.2)" /> <line x1="-10" y1="0" x2="10" y2="0" stroke="black" stroke-width="1.5" stroke-linecap="round" vector-effect="non-scaling-stroke" transform="translate(0,28) scale(1)" /> <circle cx="0" cy="0" r="10" style="fill:none;stroke:black;stroke-width:1.5" vector-effect="non-scaling-stroke" transform="translate(0,43) scale(1)" /> </g> </g> <animateMotion path="M 148 35 L 148 235" dur="3s" repeatCount="indefinite"/> </g> </g> <mask id="maskC"> <rect x="0" y="0" width="340" height="340" fill="black" /> <polygon points="130,180 230,180 230,45 130,45" style="fill:white;stroke:none;"/> <circle cx="0" cy="0" r="10" style="fill:black;stroke:none" transform="translate(170,45) scale(4)" /> </mask> <g style="mask: url(#maskC)"> <g> <g transform="rotate(270)"> <line x1="0" y1="15" x2="0" y2="26" stroke="black" stroke-width="1.5" stroke-linecap="round" vector-effect="non-scaling-stroke"/> <g transform="translate(0,0) scale(1.4)"> <g> <circle cx="0" cy="0" r="10" style="fill:none;stroke:black;stroke-width:1.5" vector-effect="non-scaling-stroke" /> <circle cx="0" cy="0" r="5" style="fill:none;stroke:black;stroke-width:1.5" vector-effect="non-scaling-stroke" /> <line x1="0" y1="-10" x2="0" y2="10" stroke="black" stroke-width="1.5" stroke-linecap="round" vector-effect="non-scaling-stroke"/> <line x1="0" y1="-10" x2="0" y2="10" stroke="black" stroke-width="1.5" stroke-linecap="round" vector-effect="non-scaling-stroke" transform="rotate(45)"/> <line x1="0" y1="-10" x2="0" y2="10" stroke="black" stroke-width="1.5" stroke-linecap="round" vector-effect="non-scaling-stroke" transform="rotate(90)"/> <animateTransform attributeName="transform" attributeType="XML" type="rotate" from="0" to="-360" dur="2s" repeatCount="indefinite" /> </g> </g> <line x1="-10" y1="0" x2="10" y2="0" stroke="black" stroke-width="1.5" stroke-linecap="round" vector-effect="non-scaling-stroke" transform="translate(0,20) scale(1)" /> <g transform="translate(0,40) scale(1.3)"> <g> <circle cx="0" cy="0" r="10" style="fill:none;stroke:black;stroke-width:1.5" vector-effect="non-scaling-stroke" /> <circle cx="0" cy="0" r="7.5" style="fill:none;stroke:black;stroke-width:1.5" vector-effect="non-scaling-stroke" /> <line x1="0" y1="-7.5" x2="0" y2="7.5" stroke="black" stroke-width="1.5" stroke-linecap="round" vector-effect="non-scaling-stroke"/> <line x1="0" y1="-7.5" x2="0" y2="7.5" stroke="black" stroke-width="1.5" stroke-linecap="round" vector-effect="non-scaling-stroke" transform="rotate(11.25)"/> <line x1="0" y1="-7.5" x2="0" y2="7.5" stroke="black" stroke-width="1.5" stroke-linecap="round" vector-effect="non-scaling-stroke" transform="rotate(22.5)"/> <line x1="0" y1="-7.5" x2="0" y2="7.5" stroke="black" stroke-width="1.5" stroke-linecap="round" vector-effect="non-scaling-stroke" transform="rotate(33.75)"/> <line x1="0" y1="-7.5" x2="0" y2="7.5" stroke="black" stroke-width="1.5" stroke-linecap="round" vector-effect="non-scaling-stroke" transform="rotate(45)"/> <animateTransform attributeName="transform" attributeType="XML" type="rotate" from="0" to="360" dur="2s" repeatCount="indefinite" /> </g> </g> </g> <g transform="translate(0,105)"> <g transform="rotate(270)"> <line x1="0" y1="15" x2="0" y2="26" stroke="black" stroke-width="1.5" stroke-linecap="round" vector-effect="non-scaling-stroke"/> <g transform="translate(0,0) scale(1.4)"> <g> <circle cx="0" cy="0" r="10" style="fill:none;stroke:black;stroke-width:1.5" vector-effect="non-scaling-stroke" /> <circle cx="0" cy="0" r="5" style="fill:none;stroke:black;stroke-width:1.5" vector-effect="non-scaling-stroke" /> <line x1="0" y1="-10" x2="0" y2="10" stroke="black" stroke-width="1.5" stroke-linecap="round" vector-effect="non-scaling-stroke"/> <line x1="0" y1="-10" x2="0" y2="10" stroke="black" stroke-width="1.5" stroke-linecap="round" vector-effect="non-scaling-stroke" transform="rotate(45)"/> <line x1="0" y1="-10" x2="0" y2="10" stroke="black" stroke-width="1.5" stroke-linecap="round" vector-effect="non-scaling-stroke" transform="rotate(90)"/> <animateTransform attributeName="transform" attributeType="XML" type="rotate" from="0" to="-360" dur="2s" repeatCount="indefinite" /> </g> </g> <line x1="-10" y1="0" x2="10" y2="0" stroke="black" stroke-width="1.5" stroke-linecap="round" vector-effect="non-scaling-stroke" transform="translate(0,20) scale(1)" /> <g transform="translate(0,40) scale(1.3)"> <g> <circle cx="0" cy="0" r="10" style="fill:none;stroke:black;stroke-width:1.5" vector-effect="non-scaling-stroke" /> <circle cx="0" cy="0" r="7.5" style="fill:none;stroke:black;stroke-width:1.5" vector-effect="non-scaling-stroke" /> <line x1="0" y1="-7.5" x2="0" y2="7.5" stroke="black" stroke-width="1.5" stroke-linecap="round" vector-effect="non-scaling-stroke"/> <line x1="0" y1="-7.5" x2="0" y2="7.5" stroke="black" stroke-width="1.5" stroke-linecap="round" vector-effect="non-scaling-stroke" transform="rotate(11.25)"/> <line x1="0" y1="-7.5" x2="0" y2="7.5" stroke="black" stroke-width="1.5" stroke-linecap="round" vector-effect="non-scaling-stroke" transform="rotate(22.5)"/> <line x1="0" y1="-7.5" x2="0" y2="7.5" stroke="black" stroke-width="1.5" stroke-linecap="round" vector-effect="non-scaling-stroke" transform="rotate(33.75)"/> <line x1="0" y1="-7.5" x2="0" y2="7.5" stroke="black" stroke-width="1.5" stroke-linecap="round" vector-effect="non-scaling-stroke" transform="rotate(45)"/> <animateTransform attributeName="transform" attributeType="XML" type="rotate" from="0" to="360" dur="2s" repeatCount="indefinite" /> </g> </g> </g> </g> <animateMotion path="M 148 140 L 148 35" dur="6s" repeatCount="indefinite"/> </g> </g> <g transform="translate(170, 45)"> <g> <line x1="0" y1="-4" x2="0" y2="40" stroke="black" stroke-width="1.5" stroke-linecap="round" vector-effect="non-scaling-stroke"/> <g transform="translate(0,-18) scale(2.2)"> <polygon points="0,10 10,0 0,-10 -10,0" style="fill:none;stroke:black;stroke-width:1.5" stroke-linejoin="round" vector-effect="non-scaling-stroke" /> <circle cx="0" cy="0" r="6.5" style="fill:none;stroke:black;stroke-width:1.5" vector-effect="non-scaling-stroke" /> </g> <line x1="-10" y1="0" x2="10" y2="0" stroke="black" stroke-width="1.5" stroke-linecap="round" vector-effect="non-scaling-stroke" transform="translate(0,5) scale(1.6)" /> <circle cx="0" cy="0" r="10" style="fill:none;stroke:black;stroke-width:1.5" vector-effect="non-scaling-stroke" transform="translate(0,23) scale(1.6)" /> <animateTransform attributeName="transform" attributeType="XML" type="rotate" from="0" to="-360" dur="13s" repeatCount="indefinite" /> </g> </g> </svg>